<svg xmlns="http://www.w3.org/2000/svg" width="920" height="600" viewBox="0 0 920 600" font-family="Courier New, monospace">
<rect width="920" height="600" rx="16" fill="#0D1B2E"/>
<rect x="8" y="8" width="904" height="584" rx="12" fill="none" stroke="#1E3A50"/>
<text x="34" y="48" fill="#00E5A0" font-size="16" letter-spacing="2">ATOMIC STRUCTURE · CARBON-12</text>
<text x="34" y="72" fill="#6F8CA0" font-size="12">The Bohr model: a dense nucleus orbited by electrons in shells</text>
<circle cx="410" cy="310" r="120" fill="none" stroke="#00E5A0" stroke-opacity=".35" stroke-width="1.5"/>
<circle cx="410.0" cy="190.0" r="9" fill="#F5A623"/>
<text x="410.0" y="193.5" fill="#0D1B2E" font-size="10" text-anchor="middle" font-weight="bold">-</text>
<circle cx="410.0" cy="430.0" r="9" fill="#F5A623"/>
<text x="410.0" y="433.5" fill="#0D1B2E" font-size="10" text-anchor="middle" font-weight="bold">-</text>
<circle cx="410" cy="310" r="210" fill="none" stroke="#00E5A0" stroke-opacity=".35" stroke-width="1.5"/>
<circle cx="410.0" cy="100.0" r="9" fill="#F5A623"/>
<text x="410.0" y="103.5" fill="#0D1B2E" font-size="10" text-anchor="middle" font-weight="bold">-</text>
<circle cx="620.0" cy="310.0" r="9" fill="#F5A623"/>
<text x="620.0" y="313.5" fill="#0D1B2E" font-size="10" text-anchor="middle" font-weight="bold">-</text>
<circle cx="410.0" cy="520.0" r="9" fill="#F5A623"/>
<text x="410.0" y="523.5" fill="#0D1B2E" font-size="10" text-anchor="middle" font-weight="bold">-</text>
<circle cx="200.0" cy="310.0" r="9" fill="#F5A623"/>
<text x="200.0" y="313.5" fill="#0D1B2E" font-size="10" text-anchor="middle" font-weight="bold">-</text>
<circle cx="408.0" cy="314.0" r="12" fill="#FF4757" stroke="#0D1B2E" stroke-width="1.5"/>
<circle cx="408.7" cy="308.2" r="12" fill="#5b7d97" stroke="#0D1B2E" stroke-width="1.5"/>
<circle cx="399.3" cy="307.6" r="12" fill="#FF4757" stroke="#0D1B2E" stroke-width="1.5"/>
<circle cx="424.2" cy="315.4" r="12" fill="#5b7d97" stroke="#0D1B2E" stroke-width="1.5"/>
<circle cx="422.7" cy="313.0" r="12" fill="#FF4757" stroke="#0D1B2E" stroke-width="1.5"/>
<circle cx="412.5" cy="311.2" r="12" fill="#5b7d97" stroke="#0D1B2E" stroke-width="1.5"/>
<circle cx="387.9" cy="321.4" r="12" fill="#FF4757" stroke="#0D1B2E" stroke-width="1.5"/>
<circle cx="414.8" cy="314.7" r="12" fill="#5b7d97" stroke="#0D1B2E" stroke-width="1.5"/>
<circle cx="390.2" cy="289.6" r="12" fill="#FF4757" stroke="#0D1B2E" stroke-width="1.5"/>
<circle cx="399.5" cy="304.5" r="12" fill="#5b7d97" stroke="#0D1B2E" stroke-width="1.5"/>
<circle cx="411.4" cy="309.8" r="12" fill="#FF4757" stroke="#0D1B2E" stroke-width="1.5"/>
<circle cx="415.5" cy="303.2" r="12" fill="#5b7d97" stroke="#0D1B2E" stroke-width="1.5"/>
<line x1="410" y1="354" x2="410" y2="430" stroke="#8AAFC0" stroke-width="1"/>
<text x="410" y="448" fill="#E8F4F0" font-size="13" text-anchor="middle">Nucleus — 6 protons + 6 neutrons</text>
<line x1="410" y1="100" x2="560" y2="60" stroke="#8AAFC0" stroke-width="1"/>
<text x="566" y="62" fill="#F5A623" font-size="13">electron (e⁻)</text>
<circle cx="720" cy="120" r="9" fill="#FF4757"/>
<text x="738" y="124" fill="#8AAFC0" font-size="12">proton (+)</text>
<circle cx="720" cy="150" r="9" fill="#5b7d97"/>
<text x="738" y="154" fill="#8AAFC0" font-size="12">neutron (0)</text>
<circle cx="720" cy="180" r="9" fill="#F5A623"/>
<text x="738" y="184" fill="#8AAFC0" font-size="12">electron (–)</text>
<text x="720" y="250" fill="#6F8CA0" font-size="11">Atomic number Z = 6</text>
<text x="720" y="270" fill="#6F8CA0" font-size="11">Mass number A = 12</text>
<text x="34" y="578" fill="#6F8CA0" font-size="10" letter-spacing="1">BIT BY BIT MD · THE C-FACTOR SERIES</text>
</svg>