<svg xmlns="http://www.w3.org/2000/svg" width="980" height="640" viewBox="0 0 980 640" font-family="Courier New, monospace">
<defs>
 <radialGradient id="gNuc" cx="50%" cy="42%" r="60%"><stop offset="0%" stop-color="#1a3a4a"/><stop offset="100%" stop-color="#0D1B2E"/></radialGradient>
 <radialGradient id="gP" cx="35%" cy="30%" r="75%"><stop offset="0%" stop-color="#ffa6b0"/><stop offset="0%" stop-color="#ffa6b0"/><stop offset="55%" stop-color="#FF4757"/><stop offset="100%" stop-color="#c8303e"/></radialGradient>
 <radialGradient id="gN" cx="35%" cy="30%" r="75%"><stop offset="0%" stop-color="#bcd2e2"/><stop offset="55%" stop-color="#6f93ad"/><stop offset="100%" stop-color="#4a647a"/></radialGradient>
 <radialGradient id="gE" cx="35%" cy="30%" r="75%"><stop offset="0%" stop-color="#ffe3a8"/><stop offset="55%" stop-color="#F5A623"/><stop offset="100%" stop-color="#c47f12"/></radialGradient>
 <filter id="soft" x="-30%" y="-30%" width="160%" height="160%"><feDropShadow dx="0" dy="3" stdDeviation="5" flood-color="#000" flood-opacity="0.45"/></filter>
 <radialGradient id="gGlowT" cx="50%" cy="50%" r="50%"><stop offset="0%" stop-color="#00E5A0" stop-opacity=".28"/><stop offset="100%" stop-color="#00E5A0" stop-opacity="0"/></radialGradient>
</defs>
<rect width="980" height="640" rx="18" fill="#0D1B2E"/>
<rect x="9" y="9" width="962" height="622" rx="13" fill="none" stroke="#1E3A50"/>
<text x="40" y="52" fill="#00E5A0" font-size="17" letter-spacing="2.5" font-weight="bold">ATOMIC STRUCTURE</text>
<text x="40" y="76" fill="#6F8CA0" font-size="12.5">The Bohr model — a dense nucleus orbited by electrons in fixed energy shells</text>
<rect x="792" y="120" width="150" height="150" rx="12" fill="#0F2030" stroke="#00E5A0" stroke-width="2"/>
<text x="808" y="154" fill="#8AAFC0" font-size="15">6</text>
<text x="867" y="218" fill="#E8F4F0" font-size="62" text-anchor="middle" font-weight="bold">C</text>
<text x="867" y="244" fill="#8AAFC0" font-size="13" text-anchor="middle">Carbon</text>
<text x="867" y="262" fill="#6F8CA0" font-size="11" text-anchor="middle">12.011</text>
<circle cx="420" cy="330" r="120" fill="url(#gGlowT)"/>
<circle cx="420" cy="330" r="120" fill="none" stroke="#00E5A0" stroke-opacity=".4" stroke-width="1.4" stroke-dasharray="3 7"/>
<circle cx="420" cy="330" r="212" fill="none" stroke="#00E5A0" stroke-opacity=".4" stroke-width="1.4" stroke-dasharray="3 7"/>
<circle cx="420.0" cy="330.0" r="12.5" fill="url(#gP)" stroke="#00000055" stroke-width="0.6"/><ellipse cx="416.5" cy="326.0" rx="4.2" ry="3.0" fill="#ffffff" opacity="0.35"/>
<circle cx="440.0" cy="330.0" r="12.5" fill="url(#gN)" stroke="#00000055" stroke-width="0.6"/><ellipse cx="436.5" cy="326.0" rx="4.2" ry="3.0" fill="#ffffff" opacity="0.35"/>
<circle cx="426.2" cy="349.0" r="12.5" fill="url(#gP)" stroke="#00000055" stroke-width="0.6"/><ellipse cx="422.7" cy="345.0" rx="4.2" ry="3.0" fill="#ffffff" opacity="0.35"/>
<circle cx="403.8" cy="341.8" r="12.5" fill="url(#gN)" stroke="#00000055" stroke-width="0.6"/><ellipse cx="400.3" cy="337.8" rx="4.2" ry="3.0" fill="#ffffff" opacity="0.35"/>
<circle cx="403.8" cy="318.2" r="12.5" fill="url(#gP)" stroke="#00000055" stroke-width="0.6"/><ellipse cx="400.3" cy="314.2" rx="4.2" ry="3.0" fill="#ffffff" opacity="0.35"/>
<circle cx="426.2" cy="311.0" r="12.5" fill="url(#gN)" stroke="#00000055" stroke-width="0.6"/><ellipse cx="422.7" cy="307.0" rx="4.2" ry="3.0" fill="#ffffff" opacity="0.35"/>
<circle cx="454.4" cy="346.1" r="12.5" fill="url(#gP)" stroke="#00000055" stroke-width="0.6"/><ellipse cx="450.9" cy="342.1" rx="4.2" ry="3.0" fill="#ffffff" opacity="0.35"/>
<circle cx="423.3" cy="367.9" r="12.5" fill="url(#gN)" stroke="#00000055" stroke-width="0.6"/><ellipse cx="419.8" cy="363.9" rx="4.2" ry="3.0" fill="#ffffff" opacity="0.35"/>
<circle cx="388.9" cy="351.8" r="12.5" fill="url(#gP)" stroke="#00000055" stroke-width="0.6"/><ellipse cx="385.4" cy="347.8" rx="4.2" ry="3.0" fill="#ffffff" opacity="0.35"/>
<circle cx="385.6" cy="313.9" r="12.5" fill="url(#gN)" stroke="#00000055" stroke-width="0.6"/><ellipse cx="382.1" cy="309.9" rx="4.2" ry="3.0" fill="#ffffff" opacity="0.35"/>
<circle cx="416.7" cy="292.1" r="12.5" fill="url(#gP)" stroke="#00000055" stroke-width="0.6"/><ellipse cx="413.2" cy="288.1" rx="4.2" ry="3.0" fill="#ffffff" opacity="0.35"/>
<circle cx="451.1" cy="308.2" r="12.5" fill="url(#gN)" stroke="#00000055" stroke-width="0.6"/><ellipse cx="447.6" cy="304.2" rx="4.2" ry="3.0" fill="#ffffff" opacity="0.35"/>
<circle cx="420.0" cy="210.0" r="10" fill="url(#gE)" stroke="#00000055" stroke-width="0.6"/><ellipse cx="417.2" cy="206.8" rx="3.4" ry="2.4" fill="#ffffff" opacity="0.35"/>
<circle cx="420.0" cy="450.0" r="10" fill="url(#gE)" stroke="#00000055" stroke-width="0.6"/><ellipse cx="417.2" cy="446.8" rx="3.4" ry="2.4" fill="#ffffff" opacity="0.35"/>
<circle cx="485.5" cy="128.4" r="10" fill="url(#gE)" stroke="#00000055" stroke-width="0.6"/><ellipse cx="482.7" cy="125.2" rx="3.4" ry="2.4" fill="#ffffff" opacity="0.35"/>
<circle cx="621.6" cy="395.5" r="10" fill="url(#gE)" stroke="#00000055" stroke-width="0.6"/><ellipse cx="618.8" cy="392.3" rx="3.4" ry="2.4" fill="#ffffff" opacity="0.35"/>
<circle cx="354.5" cy="531.6" r="10" fill="url(#gE)" stroke="#00000055" stroke-width="0.6"/><ellipse cx="351.7" cy="528.4" rx="3.4" ry="2.4" fill="#ffffff" opacity="0.35"/>
<circle cx="218.4" cy="264.5" r="10" fill="url(#gE)" stroke="#00000055" stroke-width="0.6"/><ellipse cx="215.6" cy="261.3" rx="3.4" ry="2.4" fill="#ffffff" opacity="0.35"/>
<path d="M 632 316 q 14 14 0 28" fill="none" stroke="#00E5A0" stroke-width="1.6" marker-end="url(#ah)"/>
<defs><marker id="ah" markerWidth="8" markerHeight="8" refX="4" refY="4" orient="auto"><path d="M0 0 L8 4 L0 8 z" fill="#00E5A0"/></marker></defs>
<line x1="420" y1="376" x2="420" y2="480" stroke="#8AAFC0"/><circle cx="420" cy="376" r="2.5" fill="#8AAFC0"/>
<text x="420" y="500" fill="#E8F4F0" font-size="13.5" text-anchor="middle">Nucleus · 6 protons + 6 neutrons</text>
<line x1="486" y1="128" x2="576" y2="88" stroke="#8AAFC0"/>
<text x="582" y="90" fill="#F5A623" font-size="13">electron (e⁻)</text>
<text x="200" y="334" fill="#00E5A0" font-size="11.5" text-anchor="end" opacity=".85">n = 2  ·  4e⁻</text>
<text x="292" y="244" fill="#00E5A0" font-size="11.5" text-anchor="end" opacity=".85">n = 1  ·  2e⁻</text>
<circle cx="800.0" cy="300.0" r="8" fill="url(#gP)" stroke="#00000055" stroke-width="0.6"/><ellipse cx="797.8" cy="297.4" rx="2.7" ry="1.9" fill="#ffffff" opacity="0.35"/>
<text x="818" y="304" fill="#8AAFC0" font-size="12">proton  (+1)</text>
<circle cx="800.0" cy="330.0" r="8" fill="url(#gN)" stroke="#00000055" stroke-width="0.6"/><ellipse cx="797.8" cy="327.4" rx="2.7" ry="1.9" fill="#ffffff" opacity="0.35"/>
<text x="818" y="334" fill="#8AAFC0" font-size="12">neutron  (0)</text>
<circle cx="800.0" cy="360.0" r="8" fill="url(#gE)" stroke="#00000055" stroke-width="0.6"/><ellipse cx="797.8" cy="357.4" rx="2.7" ry="1.9" fill="#ffffff" opacity="0.35"/>
<text x="818" y="364" fill="#8AAFC0" font-size="12">electron  (–1)</text>
<text x="40" y="582" fill="#6F8CA0" font-size="12">Electron configuration</text>
<text x="40" y="604" fill="#E8F4F0" font-size="15">1s² 2s² 2p²</text>
<text x="940" y="610" fill="#6F8CA0" font-size="10" text-anchor="end" letter-spacing="1">BIT BY BIT MD · THE C-FACTOR SERIES</text>
</svg>