<svg xmlns="http://www.w3.org/2000/svg" width="1000" height="720" viewBox="0 0 1000 720" font-family="Courier New, monospace">
<rect width="1000" height="720" rx="16" fill="#0D1B2E"/>
<rect x="8" y="8" width="984" height="704" rx="12" fill="none" stroke="#1E3A50"/>
<text x="34" y="48" fill="#00E5A0" font-size="16" letter-spacing="2">THE ANIMAL CELL · ORGANELLES</text>
<ellipse cx="500" cy="380" rx="430" ry="300" fill="#0A1520" stroke="#00E5A0" stroke-width="4"/>
<ellipse cx="500" cy="380" rx="423" ry="293" fill="none" stroke="#00E5A0" stroke-opacity=".4" stroke-width="2"/>
<circle cx="410" cy="360" r="115" fill="#A855F7" fill-opacity=".14" stroke="#A855F7" stroke-width="2.5" stroke-dasharray="2 6"/>
<circle cx="410" cy="360" r="108" fill="none" stroke="#A855F7" stroke-opacity=".5" stroke-width="1.5"/>
<circle cx="388" cy="348" r="34" fill="#A855F7" fill-opacity=".5"/>
<line x1="505" y1="290" x2="210" y2="150" stroke="#8AAFC0" stroke-width="1"/>
<circle cx="505" cy="290" r="3" fill="#8AAFC0"/>
<text x="210" y="150" fill="#A855F7" font-size="13" text-anchor="end">Nuclear envelope (pores)</text>
<line x1="388" y1="348" x2="150" y2="250" stroke="#8AAFC0" stroke-width="1"/>
<circle cx="388" cy="348" r="3" fill="#8AAFC0"/>
<text x="150" y="250" fill="#E8F4F0" font-size="13" text-anchor="end">Nucleolus</text>
<line x1="410" y1="420" x2="300" y2="470" stroke="#8AAFC0" stroke-width="1"/>
<circle cx="410" cy="420" r="3" fill="#8AAFC0"/>
<text x="300" y="470" fill="#E8F4F0" font-size="13" text-anchor="end">Nucleus</text>
<path d="M 525 264 A 150 150 0 0 1 485 490" fill="none" stroke="#4D9FFF" stroke-width="3"/>
<circle cx="530" cy="260" r="3.2" fill="#00E5A0"/>
<circle cx="551" cy="292" r="3.2" fill="#00E5A0"/>
<circle cx="563" cy="329" r="3.2" fill="#00E5A0"/>
<circle cx="566" cy="368" r="3.2" fill="#00E5A0"/>
<circle cx="559" cy="406" r="3.2" fill="#00E5A0"/>
<circle cx="543" cy="441" r="3.2" fill="#00E5A0"/>
<circle cx="519" cy="472" r="3.2" fill="#00E5A0"/>
<circle cx="488" cy="495" r="3.2" fill="#00E5A0"/>
<path d="M 539 252 A 168 168 0 0 1 494 505" fill="none" stroke="#4D9FFF" stroke-width="3"/>
<circle cx="543" cy="248" r="3.2" fill="#00E5A0"/>
<circle cx="567" cy="285" r="3.2" fill="#00E5A0"/>
<circle cx="581" cy="326" r="3.2" fill="#00E5A0"/>
<circle cx="584" cy="369" r="3.2" fill="#00E5A0"/>
<circle cx="576" cy="411" r="3.2" fill="#00E5A0"/>
<circle cx="558" cy="451" r="3.2" fill="#00E5A0"/>
<circle cx="531" cy="485" r="3.2" fill="#00E5A0"/>
<circle cx="497" cy="511" r="3.2" fill="#00E5A0"/>
<path d="M 552 240 A 186 186 0 0 1 503 521" fill="none" stroke="#4D9FFF" stroke-width="3"/>
<circle cx="557" cy="237" r="3.2" fill="#00E5A0"/>
<circle cx="583" cy="277" r="3.2" fill="#00E5A0"/>
<circle cx="598" cy="322" r="3.2" fill="#00E5A0"/>
<circle cx="602" cy="370" r="3.2" fill="#00E5A0"/>
<circle cx="593" cy="417" r="3.2" fill="#00E5A0"/>
<circle cx="574" cy="460" r="3.2" fill="#00E5A0"/>
<circle cx="544" cy="497" r="3.2" fill="#00E5A0"/>
<circle cx="506" cy="526" r="3.2" fill="#00E5A0"/>
<line x1="580" y1="400" x2="250" y2="560" stroke="#8AAFC0" stroke-width="1"/>
<circle cx="580" cy="400" r="3" fill="#8AAFC0"/>
<text x="250" y="560" fill="#4D9FFF" font-size="13" text-anchor="end">Rough ER (ribosomes attached)</text>
<path d="M 590 430 q 30 -28 60 0 q 30 28 60 0 q 30 -28 60 0" fill="none" stroke="#2ED573" stroke-width="3"/>
<path d="M 590 455 q 30 -28 60 0 q 30 28 60 0 q 30 -28 60 0" fill="none" stroke="#2ED573" stroke-width="3" stroke-opacity=".7"/>
<line x1="710" y1="442" x2="820" y2="540" stroke="#8AAFC0" stroke-width="1"/>
<circle cx="710" cy="442" r="3" fill="#8AAFC0"/>
<text x="820" y="540" fill="#2ED573" font-size="13" text-anchor="start">Smooth ER</text>
<path d="M 585 250 q 55 -26 110 0" fill="none" stroke="#F5A623" stroke-width="4"/>
<path d="M 585 266 q 55 -26 110 0" fill="none" stroke="#F5A623" stroke-width="4"/>
<path d="M 585 282 q 55 -26 110 0" fill="none" stroke="#F5A623" stroke-width="4"/>
<path d="M 585 298 q 55 -26 110 0" fill="none" stroke="#F5A623" stroke-width="4"/>
<circle cx="710" cy="320" r="7" fill="#F5A623" fill-opacity=".6"/>
<circle cx="732" cy="332" r="5" fill="#F5A623" fill-opacity=".5"/>
<line x1="640" y1="250" x2="760" y2="150" stroke="#8AAFC0" stroke-width="1"/>
<circle cx="640" cy="250" r="3" fill="#8AAFC0"/>
<text x="760" y="150" fill="#F5A623" font-size="13" text-anchor="start">Golgi apparatus</text>
<line x1="720" y1="326" x2="840" y2="210" stroke="#8AAFC0" stroke-width="1"/>
<circle cx="720" cy="326" r="3" fill="#8AAFC0"/>
<text x="840" y="210" fill="#6F8CA0" font-size="13" text-anchor="start">Vesicles</text>
<g transform="translate(560,560) rotate(-18)">
<ellipse rx="62" ry="30" fill="#FF4757" fill-opacity=".16" stroke="#FF4757" stroke-width="2.5"/>
<path d="M -50 -8 q 12 22 24 0 q 12 -22 24 0 q 12 22 24 0 q 12 -22 24 0" fill="none" stroke="#FF4757" stroke-width="2" stroke-opacity=".8"/>
</g>
<g transform="translate(330,520) rotate(12)">
<ellipse rx="62" ry="30" fill="#FF4757" fill-opacity=".16" stroke="#FF4757" stroke-width="2.5"/>
<path d="M -50 -8 q 12 22 24 0 q 12 -22 24 0 q 12 22 24 0 q 12 -22 24 0" fill="none" stroke="#FF4757" stroke-width="2" stroke-opacity=".8"/>
</g>
<line x1="560" y1="560" x2="640" y2="640" stroke="#8AAFC0" stroke-width="1"/>
<circle cx="560" cy="560" r="3" fill="#8AAFC0"/>
<text x="640" y="640" fill="#FF4757" font-size="13" text-anchor="start">Mitochondrion (cristae)</text>
<circle cx="588" cy="180" r="3" fill="#00E5A0" fill-opacity=".8"/>
<circle cx="847" cy="366" r="3" fill="#00E5A0" fill-opacity=".8"/>
<circle cx="736" cy="369" r="3" fill="#00E5A0" fill-opacity=".8"/>
<circle cx="597" cy="219" r="3" fill="#00E5A0" fill-opacity=".8"/>
<circle cx="594" cy="549" r="3" fill="#00E5A0" fill-opacity=".8"/>
<circle cx="516" cy="491" r="3" fill="#00E5A0" fill-opacity=".8"/>
<circle cx="620" cy="179" r="3" fill="#00E5A0" fill-opacity=".8"/>
<circle cx="681" cy="422" r="3" fill="#00E5A0" fill-opacity=".8"/>
<circle cx="361" cy="164" r="3" fill="#00E5A0" fill-opacity=".8"/>
<circle cx="756" cy="367" r="3" fill="#00E5A0" fill-opacity=".8"/>
<circle cx="653" cy="554" r="3" fill="#00E5A0" fill-opacity=".8"/>
<circle cx="650" cy="574" r="3" fill="#00E5A0" fill-opacity=".8"/>
<line x1="250" y1="470" x2="120" y2="560" stroke="#8AAFC0" stroke-width="1"/>
<circle cx="250" cy="470" r="3" fill="#8AAFC0"/>
<text x="120" y="560" fill="#00E5A0" font-size="13" text-anchor="end">Free ribosomes</text>
<circle cx="300" cy="250" r="26" fill="#FF4757" fill-opacity=".18" stroke="#FF4757" stroke-width="2"/>
<circle cx="297" cy="259" r="2.5" fill="#FF4757"/>
<circle cx="298" cy="263" r="2.5" fill="#FF4757"/>
<circle cx="311" cy="238" r="2.5" fill="#FF4757"/>
<circle cx="289" cy="242" r="2.5" fill="#FF4757"/>
<circle cx="314" cy="248" r="2.5" fill="#FF4757"/>
<circle cx="304" cy="244" r="2.5" fill="#FF4757"/>
<line x1="300" y1="250" x2="160" y2="180" stroke="#8AAFC0" stroke-width="1"/>
<circle cx="300" cy="250" r="3" fill="#8AAFC0"/>
<text x="160" y="180" fill="#FF4757" font-size="13" text-anchor="end">Lysosome</text>
<line x1="760" y1="300" x2="880" y2="250" stroke="#8AAFC0" stroke-width="1"/>
<circle cx="760" cy="300" r="3" fill="#8AAFC0"/>
<text x="880" y="250" fill="#6F8CA0" font-size="13" text-anchor="start">Cytoplasm</text>
<text x="34" y="698" fill="#6F8CA0" font-size="10" letter-spacing="1">BIT BY BIT MD · THE C-FACTOR SERIES</text>
</svg>