<svg xmlns="http://www.w3.org/2000/svg" width="1180" height="790" viewBox="0 0 1180 790" font-family="Courier New, monospace">
<defs>
 <radialGradient id="cyto" cx="50%" cy="42%" r="62%"><stop offset="0%" stop-color="#12283a"/><stop offset="100%" stop-color="#0F2030"/></radialGradient>
 <radialGradient id="nuc" cx="42%" cy="36%" r="65%"><stop offset="0%" stop-color="#3a2a55"/><stop offset="100%" stop-color="#241934"/></radialGradient>
 <radialGradient id="nucl" cx="40%" cy="35%" r="70%"><stop offset="0%" stop-color="#c89bf0"/><stop offset="100%" stop-color="#A855F7"/></radialGradient>
 <linearGradient id="mito" x1="0" y1="0" x2="0" y2="1"><stop offset="0%" stop-color="#ff7a86"/><stop offset="100%" stop-color="#c8303e"/></linearGradient>
 <linearGradient id="golgi" x1="0" y1="0" x2="0" y2="1"><stop offset="0%" stop-color="#ffd27a"/><stop offset="100%" stop-color="#F5A623"/></linearGradient>
 <radialGradient id="lyso" cx="38%" cy="32%" r="72%"><stop offset="0%" stop-color="#ff97a1"/><stop offset="100%" stop-color="#b5303c"/></radialGradient>
 <filter id="sh" x="-40%" y="-40%" width="180%" height="180%"><feDropShadow dx="0" dy="4" stdDeviation="6" flood-color="#000" flood-opacity="0.4"/></filter>
</defs>
<rect width="1180" height="790" rx="18" fill="#0D1B2E"/>
<rect x="9" y="9" width="1162" height="772" rx="13" fill="none" stroke="#1E3A50"/>
<text x="40" y="52" fill="#00E5A0" font-size="17" letter-spacing="2.5" font-weight="bold">THE ANIMAL CELL</text>
<text x="40" y="76" fill="#6F8CA0" font-size="12.5">A eukaryotic cell and its membrane-bound organelles</text>
<ellipse cx="590" cy="415" rx="380" ry="300" fill="url(#cyto)" stroke="#00E5A0" stroke-width="5" filter="url(#sh)"/>
<ellipse cx="590" cy="415" rx="372" ry="292" fill="none" stroke="#00E5A0" stroke-opacity=".35" stroke-width="2"/>
<circle cx="520" cy="410" r="138" fill="url(#nuc)" stroke="#A855F7" stroke-width="3" filter="url(#sh)"/>
<circle cx="520" cy="410" r="129" fill="none" stroke="#A855F7" stroke-opacity=".55" stroke-width="2" stroke-dasharray="3 9"/>
<path d="M 467 358 q 14 -10 26 4 q 12 12 26 2" fill="none" stroke="#A855F7" stroke-opacity=".4" stroke-width="2"/>
<path d="M 546 319 q 14 -10 26 4 q 12 12 26 2" fill="none" stroke="#A855F7" stroke-opacity=".4" stroke-width="2"/>
<path d="M 514 318 q 14 -10 26 4 q 12 12 26 2" fill="none" stroke="#A855F7" stroke-opacity=".4" stroke-width="2"/>
<path d="M 566 418 q 14 -10 26 4 q 12 12 26 2" fill="none" stroke="#A855F7" stroke-opacity=".4" stroke-width="2"/>
<path d="M 581 387 q 14 -10 26 4 q 12 12 26 2" fill="none" stroke="#A855F7" stroke-opacity=".4" stroke-width="2"/>
<path d="M 529 403 q 14 -10 26 4 q 12 12 26 2" fill="none" stroke="#A855F7" stroke-opacity=".4" stroke-width="2"/>
<path d="M 496 415 q 14 -10 26 4 q 12 12 26 2" fill="none" stroke="#A855F7" stroke-opacity=".4" stroke-width="2"/>
<circle cx="494" cy="388" r="46" fill="url(#nucl)"/>
<polyline points="494,388 250,352" fill="none" stroke="#8AAFC0" stroke-width="1"/><circle cx="494" cy="388" r="2.6" fill="#8AAFC0"/>
<text x="244" y="356" fill="#E8F4F0" font-size="13" text-anchor="end">Nucleolus</text>
<polyline points="400,480 250,432" fill="none" stroke="#8AAFC0" stroke-width="1"/><circle cx="400" cy="480" r="2.6" fill="#8AAFC0"/>
<text x="244" y="436" fill="#E8F4F0" font-size="13" text-anchor="end">Nucleus (with pores)</text>
<path d="M 630 296 A 158 158 0 0 1 617 535" fill="none" stroke="#4D9FFF" stroke-width="5" stroke-linecap="round"/>
<circle cx="635" cy="291" r="3.4" fill="#00E5A0"/>
<circle cx="657" cy="318" r="3.4" fill="#00E5A0"/>
<circle cx="674" cy="350" r="3.4" fill="#00E5A0"/>
<circle cx="683" cy="383" r="3.4" fill="#00E5A0"/>
<circle cx="685" cy="419" r="3.4" fill="#00E5A0"/>
<circle cx="679" cy="453" r="3.4" fill="#00E5A0"/>
<circle cx="666" cy="486" r="3.4" fill="#00E5A0"/>
<circle cx="647" cy="516" r="3.4" fill="#00E5A0"/>
<circle cx="622" cy="540" r="3.4" fill="#00E5A0"/>
<path d="M 642 283 A 176 176 0 0 1 628 549" fill="none" stroke="#4D9FFF" stroke-width="5" stroke-linecap="round"/>
<circle cx="647" cy="278" r="3.4" fill="#00E5A0"/>
<circle cx="672" cy="308" r="3.4" fill="#00E5A0"/>
<circle cx="690" cy="343" r="3.4" fill="#00E5A0"/>
<circle cx="701" cy="381" r="3.4" fill="#00E5A0"/>
<circle cx="703" cy="420" r="3.4" fill="#00E5A0"/>
<circle cx="697" cy="458" r="3.4" fill="#00E5A0"/>
<circle cx="682" cy="494" r="3.4" fill="#00E5A0"/>
<circle cx="661" cy="527" r="3.4" fill="#00E5A0"/>
<circle cx="633" cy="554" r="3.4" fill="#00E5A0"/>
<path d="M 655 270 A 194 194 0 0 1 639 563" fill="none" stroke="#4D9FFF" stroke-width="5" stroke-linecap="round"/>
<circle cx="660" cy="265" r="3.4" fill="#00E5A0"/>
<circle cx="687" cy="298" r="3.4" fill="#00E5A0"/>
<circle cx="707" cy="336" r="3.4" fill="#00E5A0"/>
<circle cx="718" cy="378" r="3.4" fill="#00E5A0"/>
<circle cx="721" cy="421" r="3.4" fill="#00E5A0"/>
<circle cx="714" cy="463" r="3.4" fill="#00E5A0"/>
<circle cx="698" cy="503" r="3.4" fill="#00E5A0"/>
<circle cx="675" cy="539" r="3.4" fill="#00E5A0"/>
<circle cx="644" cy="568" r="3.4" fill="#00E5A0"/>
<polyline points="714,420 930,372" fill="none" stroke="#8AAFC0" stroke-width="1"/><circle cx="714" cy="420" r="2.6" fill="#8AAFC0"/>
<text x="936" y="376" fill="#4D9FFF" font-size="13">Rough ER</text>
<path d="M 800 470 q 36 -30 70 -6 q 34 24 70 -2 M 802 498 q 36 26 72 2 q 34 -24 66 4" fill="none" stroke="#2ED573" stroke-width="5" stroke-linecap="round"/>
<polyline points="900,488 930,470" fill="none" stroke="#8AAFC0" stroke-width="1"/><circle cx="900" cy="488" r="2.6" fill="#8AAFC0"/>
<text x="936" y="474" fill="#2ED573" font-size="13">Smooth ER</text>
<path d="M 729 252 q 46 -20 92 0" fill="none" stroke="url(#golgi)" stroke-width="6" stroke-linecap="round"/>
<path d="M 720 267 q 55 -22 110 0" fill="none" stroke="url(#golgi)" stroke-width="6" stroke-linecap="round"/>
<path d="M 711 282 q 64 -24 128 0" fill="none" stroke="url(#golgi)" stroke-width="6" stroke-linecap="round"/>
<path d="M 702 297 q 73 -26 146 0" fill="none" stroke="url(#golgi)" stroke-width="6" stroke-linecap="round"/>
<path d="M 693 312 q 82 -28 164 0" fill="none" stroke="url(#golgi)" stroke-width="6" stroke-linecap="round"/>
<circle cx="849" cy="338" r="8" fill="#F5A623" fill-opacity=".5"/>
<circle cx="871" cy="352" r="6" fill="#F5A623" fill-opacity=".5"/>
<circle cx="705" cy="246" r="7" fill="#F5A623" fill-opacity=".5"/>
<polyline points="805,258 930,250" fill="none" stroke="#8AAFC0" stroke-width="1"/><circle cx="805" cy="258" r="2.6" fill="#8AAFC0"/>
<text x="936" y="254" fill="#F5A623" font-size="13">Golgi apparatus</text>
<polyline points="871,352 930,318" fill="none" stroke="#8AAFC0" stroke-width="1"/><circle cx="871" cy="352" r="2.6" fill="#8AAFC0"/>
<text x="936" y="322" fill="#6F8CA0" font-size="13">Vesicles</text>
<g transform="translate(800,585) rotate(-16)" filter="url(#sh)">
<rect x="-66" y="-32" width="132" height="64" rx="32" fill="url(#mito)" stroke="#a82834" stroke-width="2"/>
<rect x="-60" y="-26" width="120" height="52" rx="26" fill="none" stroke="#ffd9dd" stroke-opacity=".5" stroke-width="1.6"/>
<polyline points="-54,16 -39,-16 -24,16 -9,-16 6,16 21,-16 36,16 51,-16" fill="none" stroke="#ffd9dd" stroke-opacity=".8" stroke-width="2.2"/>
</g>
<g transform="translate(560,628) rotate(10)" filter="url(#sh)">
<rect x="-66" y="-32" width="132" height="64" rx="32" fill="url(#mito)" stroke="#a82834" stroke-width="2"/>
<rect x="-60" y="-26" width="120" height="52" rx="26" fill="none" stroke="#ffd9dd" stroke-opacity=".5" stroke-width="1.6"/>
<polyline points="-54,16 -39,-16 -24,16 -9,-16 6,16 21,-16 36,16 51,-16" fill="none" stroke="#ffd9dd" stroke-opacity=".8" stroke-width="2.2"/>
</g>
<polyline points="800,585 930,568" fill="none" stroke="#8AAFC0" stroke-width="1"/><circle cx="800" cy="585" r="2.6" fill="#8AAFC0"/>
<text x="936" y="572" fill="#FF4757" font-size="13">Mitochondrion (cristae)</text>
<circle cx="352" cy="252" r="30" fill="url(#lyso)" filter="url(#sh)"/>
<circle cx="353" cy="255" r="2.6" fill="#5a0e16"/>
<circle cx="335" cy="242" r="2.6" fill="#5a0e16"/>
<circle cx="345" cy="266" r="2.6" fill="#5a0e16"/>
<circle cx="361" cy="240" r="2.6" fill="#5a0e16"/>
<circle cx="362" cy="240" r="2.6" fill="#5a0e16"/>
<circle cx="356" cy="239" r="2.6" fill="#5a0e16"/>
<circle cx="335" cy="265" r="2.6" fill="#5a0e16"/>
<polyline points="352,252 250,250" fill="none" stroke="#8AAFC0" stroke-width="1"/><circle cx="352" cy="252" r="2.6" fill="#8AAFC0"/>
<text x="244" y="254" fill="#FF4757" font-size="13" text-anchor="end">Lysosome</text>
<g transform="translate(720,168)"><rect x="-26" y="-9" width="52" height="18" rx="4" fill="#2A5570" stroke="#8AAFC0"/><rect x="-9" y="-26" width="18" height="52" rx="4" fill="#2A5570" stroke="#8AAFC0"/></g>
<polyline points="724,150 930,150" fill="none" stroke="#8AAFC0" stroke-width="1"/><circle cx="724" cy="150" r="2.6" fill="#8AAFC0"/>
<text x="936" y="154" fill="#8AAFC0" font-size="13">Centrioles</text>
<circle cx="410" cy="560" r="3.3" fill="#00E5A0"/>
<circle cx="405" cy="566" r="3.3" fill="#00E5A0"/>
<circle cx="396" cy="566" r="3.3" fill="#00E5A0"/>
<circle cx="390" cy="561" r="3.3" fill="#00E5A0"/>
<circle cx="393" cy="555" r="3.3" fill="#00E5A0"/>
<circle cx="403" cy="553" r="3.3" fill="#00E5A0"/>
<circle cx="460" cy="600" r="3.3" fill="#00E5A0"/>
<circle cx="455" cy="606" r="3.3" fill="#00E5A0"/>
<circle cx="446" cy="606" r="3.3" fill="#00E5A0"/>
<circle cx="440" cy="601" r="3.3" fill="#00E5A0"/>
<circle cx="443" cy="595" r="3.3" fill="#00E5A0"/>
<circle cx="453" cy="593" r="3.3" fill="#00E5A0"/>
<circle cx="370" cy="520" r="3.3" fill="#00E5A0"/>
<circle cx="365" cy="526" r="3.3" fill="#00E5A0"/>
<circle cx="356" cy="526" r="3.3" fill="#00E5A0"/>
<circle cx="350" cy="521" r="3.3" fill="#00E5A0"/>
<circle cx="353" cy="515" r="3.3" fill="#00E5A0"/>
<circle cx="363" cy="513" r="3.3" fill="#00E5A0"/>
<polyline points="400,560 250,560" fill="none" stroke="#8AAFC0" stroke-width="1"/><circle cx="400" cy="560" r="2.6" fill="#8AAFC0"/>
<text x="244" y="564" fill="#00E5A0" font-size="13" text-anchor="end">Free ribosomes</text>
<polyline points="885,395 930,395" fill="none" stroke="#8AAFC0" stroke-width="1"/><circle cx="885" cy="395" r="2.6" fill="#8AAFC0"/>
<text x="936" y="399" fill="#6F8CA0" font-size="13">Cytoplasm</text>
<polyline points="330,150 250,120" fill="none" stroke="#8AAFC0" stroke-width="1"/><circle cx="330" cy="150" r="2.6" fill="#8AAFC0"/>
<text x="244" y="124" fill="#00E5A0" font-size="13" text-anchor="end">Cell membrane</text>
<circle cx="120" cy="690" r="58" fill="#0F2030" stroke="#00E5A0" stroke-width="1.5"/>
<line x1="160" y1="650" x2="305" y2="565" stroke="#2A5570" stroke-dasharray="3 4"/>
<circle cx="72" cy="676" r="4.5" fill="#F5A623"/><line x1="72" y1="680" x2="72" y2="692" stroke="#F5A623" stroke-width="1.4"/>
<circle cx="72" cy="708" r="4.5" fill="#F5A623"/><line x1="72" y1="704" x2="72" y2="692" stroke="#F5A623" stroke-width="1.4"/>
<circle cx="88" cy="676" r="4.5" fill="#F5A623"/><line x1="88" y1="680" x2="88" y2="692" stroke="#F5A623" stroke-width="1.4"/>
<circle cx="88" cy="708" r="4.5" fill="#F5A623"/><line x1="88" y1="704" x2="88" y2="692" stroke="#F5A623" stroke-width="1.4"/>
<circle cx="104" cy="676" r="4.5" fill="#F5A623"/><line x1="104" y1="680" x2="104" y2="692" stroke="#F5A623" stroke-width="1.4"/>
<circle cx="104" cy="708" r="4.5" fill="#F5A623"/><line x1="104" y1="704" x2="104" y2="692" stroke="#F5A623" stroke-width="1.4"/>
<circle cx="120" cy="676" r="4.5" fill="#F5A623"/><line x1="120" y1="680" x2="120" y2="692" stroke="#F5A623" stroke-width="1.4"/>
<circle cx="120" cy="708" r="4.5" fill="#F5A623"/><line x1="120" y1="704" x2="120" y2="692" stroke="#F5A623" stroke-width="1.4"/>
<circle cx="136" cy="676" r="4.5" fill="#F5A623"/><line x1="136" y1="680" x2="136" y2="692" stroke="#F5A623" stroke-width="1.4"/>
<circle cx="136" cy="708" r="4.5" fill="#F5A623"/><line x1="136" y1="704" x2="136" y2="692" stroke="#F5A623" stroke-width="1.4"/>
<circle cx="152" cy="676" r="4.5" fill="#F5A623"/><line x1="152" y1="680" x2="152" y2="692" stroke="#F5A623" stroke-width="1.4"/>
<circle cx="152" cy="708" r="4.5" fill="#F5A623"/><line x1="152" y1="704" x2="152" y2="692" stroke="#F5A623" stroke-width="1.4"/>
<circle cx="168" cy="676" r="4.5" fill="#F5A623"/><line x1="168" y1="680" x2="168" y2="692" stroke="#F5A623" stroke-width="1.4"/>
<circle cx="168" cy="708" r="4.5" fill="#F5A623"/><line x1="168" y1="704" x2="168" y2="692" stroke="#F5A623" stroke-width="1.4"/>
<text x="120" y="740" fill="#6F8CA0" font-size="9.5" text-anchor="middle">phospholipid bilayer</text>
<text x="1140" y="762" fill="#6F8CA0" font-size="10" text-anchor="end" letter-spacing="1">BIT BY BIT MD · THE C-FACTOR SERIES</text>
</svg>